# xmcd
#
# Track frame offsets:
#	150
#	21215
#	30817
#	40025
#	53022
#	64297
#	75235
#	85297
#	98522
#	109120
#	121260
#	132822
#
# Disc length: 1971
#
# Revision: 2
# Processed by: cddbd v1.5.1PL0 Copyright (c) Steve Scherf et al.
# Submitted via: EasyCDDAExtractor 5.1.0
# Normalized: r1:DSETVAR1
#
DISCID=8207b10c
DTITLE=Various Artist - Some Artists made Music. Sam Cooke Made History
DYEAR=2003
DGENRE=Pop
TTITLE0=Sam Cooke - Twistin' the night away
TTITLE1=Wonderful World
TTITLE2=Only Sixteen
TTITLE3=Little Red Rooster
TTITLE4=Jesus Gave Me Water
TTITLE5=T'Aint Nobody's Bizness
TTITLE6=Dance What You Want
TTITLE7=It's All Over Now
TTITLE8=Keep Movin' On
TTITLE9=Another Saturday Night
TTITLE10=Crazy She Calls Me
TTITLE11=Nobody Knows You When You're Down and Out
EXTD=
EXTT0=
EXTT1=
EXTT2=
EXTT3=
EXTT4=
EXTT5=
EXTT6=
EXTT7=
EXTT8=
EXTT9=
EXTT10=
EXTT11=
PLAYORDER=
